<svg xmlns="http://www.w3.org/2000/svg" width="19.143" height="26" viewBox="0 0 19.143 26">
  <path id="Composite_Path" data-name="Composite Path" d="M1301.271,671.287a9.583,9.583,0,0,0-9.571,9.572,9.344,9.344,0,0,0,.837,3.907c2.394,5.237,6.981,10.766,8.332,12.335a.532.532,0,0,0,.807,0c1.35-1.569,5.937-7.1,8.332-12.335a9.343,9.343,0,0,0,.836-3.907A9.582,9.582,0,0,0,1301.271,671.287Zm0,14.544a4.972,4.972,0,1,1,4.973-4.972A4.977,4.977,0,0,1,1301.271,685.831Z" transform="translate(-1291.699 -671.287)" fill="#fff"/>
</svg>
