<svg xmlns="http://www.w3.org/2000/svg" width="24.843" height="24.786" viewBox="0 0 24.843 24.786">
  <path id="Shape_1" data-name="Shape 1" d="M1064.365,691.712l-3.838-3.838a2,2,0,0,0-2.819.054l-1.933,1.932c-.123-.067-.249-.137-.382-.212a18.109,18.109,0,0,1-8.018-8.02c-.072-.129-.141-.254-.208-.372l1.3-1.3.637-.638a2,2,0,0,0,.052-2.821l-3.837-3.837a2,2,0,0,0-2.82.053l-1.08,1.087.028.029a6.273,6.273,0,0,0-.891,1.572,6.527,6.527,0,0,0-.4,1.594c-.507,4.2,1.413,8.038,6.621,13.247,7.2,7.2,13,6.655,13.252,6.628a6.481,6.481,0,0,0,1.6-.4,6.239,6.239,0,0,0,1.566-.887l.024.021,1.1-1.073A2,2,0,0,0,1064.365,691.712Z" transform="translate(-1040.078 -672.107)" fill="#fff"/>
</svg>
